<svg xmlns="http://www.w3.org/2000/svg" xmlns:xlink="http://www.w3.org/1999/xlink" xmlns:serif="http://www.serif.com/" width="100%" height="100%" viewBox="0 0 3169 3169" version="1.1" xml:space="preserve" style="fill-rule:evenodd;clip-rule:evenodd;stroke-linejoin:round;stroke-miterlimit:2;"><rect id="logo" x="0" y="0" width="3168.23" height="3168.23" style="fill:none;"/><g><path d="M1891.566,1319.377c79.49,-135.665 126.293,-198.184 158.42,-446.751c0.852,-6.595 77.868,-128.26 79.531,-128.818c13.772,-4.618 52.353,42.586 52.04,67.155c-8.612,676.161 -576.669,909.895 -608.569,900.304c-123.161,-37.033 -277.833,-171.669 -299.231,-190.295c-37.108,-32.301 -43.936,0.574 -155.099,-0.46c-20.29,-0.189 -158.476,-1.474 -233.695,-98.584c-0.591,-0.762 -15.872,-31.414 8.257,-8.782c160.669,150.702 628.577,15.014 1017.162,-383.182c72.269,-74.057 86.474,-112.519 83.52,-84.208c-1.867,17.899 -108.939,153.127 -109.331,174.144c-0.298,15.96 -3.69,197.553 0.464,199.533c0.472,0.225 -0,0 6.531,-0.056Zm-429.367,111.292c-46.785,24.01 -66.385,22.361 -50.718,36.548c32.12,29.086 153.098,106.742 173.348,102.418c21.577,-4.607 177.96,-100.447 180.552,-129.653c1.801,-20.299 0.964,-181.201 0.882,-196.958c-0.187,-35.875 -15.535,24.514 -239.216,154.871c-12.52,7.296 -56.022,28.661 -64.848,32.774Z" style="fill:#1195d3;"/><path d="M975.079,900.586c-1.418,-16.579 -14.228,-166.339 -3.765,-207.958c3.332,-13.254 112.045,-80.688 134.646,-97.018c21.604,-15.61 1.163,-195.068 12.134,-206.252c7.897,-8.05 9.496,-4.839 140.911,-3.7c27.97,0.242 4.675,87.908 17.298,92.958c8.129,3.252 285.827,-194.831 302.824,-195.333c12.308,-0.363 472.118,315.86 474.197,318.307c10.809,12.725 -66.277,102.058 -69.893,102.766c-9.926,1.944 -189.18,-125.655 -236.287,-156.616c-133.818,-87.954 -158.169,-113.204 -173.977,-108.253c-8.336,2.61 -433.655,291.091 -463.765,312.079c-17.791,12.402 2.197,180.108 13.61,233.829c28.477,134.044 75.971,218.686 80.69,229.581c7.762,17.921 -39.71,20.777 -56.855,23.475c-76.851,12.092 -83.201,-1.863 -109.972,-74.592c-45.501,-123.611 -53.623,-213.457 -61.797,-263.274Z" style="fill:#1195d3;"/><path d="M2146.472,601.774c-0.788,0.225 -3.365,-5.192 -5.645,1.61c-182.788,545.298 -1085.071,1050.461 -1262.913,723.856c-68.86,-126.46 70.503,-338.303 81.961,-328.782c8.137,6.761 -98.369,213.152 79.742,274.323c219.629,75.429 786.493,-260.727 1059.124,-643.274c29.454,-41.33 51.088,-55.115 6.727,-79.74c-48.642,-27.002 -118.517,-20.587 -98.707,-34.862c13.153,-9.478 137.944,21.988 157.279,-130.505c1.881,-14.834 0.651,-14.342 2.851,-29.05c10.86,-72.596 4.715,21.371 31.235,90.14c29.151,75.59 144.893,64.401 145.599,73.253c1.931,24.207 -142.77,-22.578 -162.237,140.945c-1.088,9.143 -1.537,18.351 -2.447,27.514c-1.125,11.333 -10.2,12.366 -11.867,1.07c-0.565,-3.83 0.608,-16.865 -16.002,-84.629l-4.701,-1.869Zm-287.489,390.131c-24.041,-4.659 -25.569,-6.279 -26.803,-7.284c-5.323,-4.335 -13.252,-49.74 -18.883,-23.092c-5.608,26.539 -10.03,25.714 -31.741,29.706c-5.985,1.101 -6.211,8.974 0.004,10.2c22.524,4.443 25.329,5.129 29.633,28.021c6.004,31.935 14.021,-9.551 14.294,-10.966c3.477,-17.993 32.777,-17.234 33.289,-18.234c1.267,-2.479 -1.059,-5.871 0.208,-8.351Zm370.953,-477.075c-76.26,-10.046 -36.409,-71.007 -59.632,-67.108c-2.574,0.432 1.267,61.283 -46.33,66.158c-48.735,4.991 7.869,13.99 15.833,18.165c25.841,13.544 25.036,31.043 28.892,54.367l6.19,1.816c0.431,-1.405 2.904,4.288 3.336,2.883c7.234,-23.56 -12.724,-51.342 57.204,-67.188l-5.493,-9.092Z" style="fill:#1195d3;"/><path d="M1528.319,684.276c1.876,0.327 138.761,12.211 141.513,132.331c1.945,84.854 -69.834,112.645 -56.355,122.748c0.53,0.397 32.383,12.836 49.394,34.854c15.81,20.462 -4.279,26.932 -59.989,63.355c-19.595,12.812 -30.019,26.812 -33.687,3.406c-9.818,-62.641 -105.733,-52.628 -197.864,-51.915c-22.339,0.173 -17.909,11.182 -17.727,108.346c0.043,22.95 35.241,16.145 79.522,15.931c0.256,-0.001 52.897,-4.82 35.467,7.506c-16.171,11.436 -217.616,111.477 -232.3,94.687c-3.674,-4.201 -1.714,-5.246 -1.993,-415.748c-0.071,-104.51 -5.133,-116.738 19.141,-117.141c151.321,-2.512 252.898,0.901 274.876,1.639Zm-17.413,100.554c-11.106,-3.459 -34.001,-10.59 -145.195,-7.877c-5.139,0.125 -11.561,2.504 -11.823,11.533c-3.021,104.159 3.19,106.818 11.811,107.229c149.003,7.104 164.468,-18.208 171.741,-30.111c29.595,-48.437 -20.639,-77.379 -26.533,-80.775Z" style="fill:#1195d3;"/><path d="M2516.661,2250.977c-39.585,-5.996 -39.604,-4.833 -55.381,-9.801c-229.946,-72.411 -183.228,-383.263 39.05,-411.547c274.861,-34.975 342.712,280.21 177.984,383.035c-77.307,48.256 -141.586,38.489 -161.653,38.313Zm-98.782,-182.605c49.397,181.816 310.578,81.138 230.96,-88.098c-51.541,-109.555 -256.429,-83.206 -230.96,88.098Z" style="fill:#1195d3;"/><path d="M691.282,2240.138c-22.181,3.142 -93.012,13.176 -279.964,5.931c-12.207,-0.473 -12.285,-12.861 -12.295,-14.374c-0.196,-31.006 -2.35,-371.49 0.25,-387.583c1.734,-10.736 7.066,-9.71 191.561,-9.401c17.975,0.03 116.998,-8.451 162.187,49.32c32.827,41.967 19.681,106.823 -11.791,132.957c-30.001,24.912 12.721,19.681 33.525,52.704c27.392,43.48 14.259,90.494 10.7,99.432c-22.917,57.555 -81.467,66.663 -94.175,71.013Zm-162.209,-240.657c59.264,0.099 124.323,7.114 136.66,-31.08c20.415,-63.205 -64.231,-60.56 -153.637,-57.955c-6.445,0.188 -15.183,1.188 -11.322,79.801c0.41,8.353 25.919,9.159 28.299,9.235Zm122.94,76.789c-30.948,-6.819 -147.919,-9.931 -151.099,3.759c-0.646,2.782 -0.481,77.253 -0.228,78.688c1.727,9.773 5.001,14.601 123.735,8.813c6.264,-0.305 65.01,-3.169 61.839,-48.173c-2.563,-36.373 -26.373,-39.373 -34.247,-43.087Z" style="fill:#1195d3;"/><path d="M1011.97,2128.602c-5.472,0.031 -52.471,-6.371 -52.738,13.056c-0.884,64.294 7.672,103.699 -14.532,104.011c-74.147,1.042 -87.657,5.942 -87.685,-19.631c-0.431,-384.922 0.312,-385.475 2.756,-388c9.408,-9.719 11.958,-4.749 169.053,-3.336c13.44,0.121 125.281,-8.904 176.938,67.472c31.514,46.594 34.846,153.624 -43.261,198.468c-22.542,12.942 -9.725,21.335 44.071,98.713c7.325,10.536 36.415,47.314 18.573,47.231c-99.829,-0.462 -101.42,-1.918 -109.173,-13.083c-47.829,-68.873 -47.733,-68.582 -56.825,-82.036c-18.45,-27.304 -23.271,-21.906 -47.175,-22.867Zm109.05,-149.723c-9.612,-69.241 -54.893,-62.938 -137.124,-62.646c-18.933,0.067 -24.699,-1.037 -24.645,17.771c0.285,98.169 -3.77,112.942 13.371,113.293c94.538,1.939 143.78,2.559 148.398,-68.419Z" style="fill:#1195d3;"/><path d="M1983.406,2077.044c-7.255,1.049 -24.83,-8.1 -24.845,19.838c-0.06,119.798 0.299,137.298 -0.822,141.188c-3.448,11.964 -99.652,13.447 -101.651,-1.134c-0.977,-7.129 -0.27,-391.101 -0.104,-392.526c0.868,-7.47 3.131,-12.405 93.494,-9.754c23.398,0.686 -4.936,150.917 17.049,155.756c3.258,0.717 160.676,0.365 162.914,-0.077c8.776,-1.733 8.773,-36.209 8.772,-39.442c-0.008,-101.746 -4.527,-115.873 13.719,-116.208c82.571,-1.515 89.856,-1.331 90.034,15.135c0.339,31.368 4.144,383.95 -1.666,392.117c-5.714,8.032 -94.785,3.19 -94.822,3.182c-14.852,-3.098 -3.718,-142.537 -8.067,-160.165c-2.424,-9.828 -6.802,-6.85 -154.005,-7.908Z" style="fill:#1195d3;"/><path d="M688.441,2513.738c-43.139,69.573 -54.023,105.845 -91.628,93.235c-17.878,-5.995 -92.533,-162.02 -90.272,-117.024c6.929,137.957 5.455,142.261 -5.856,144.806c-0.877,0.197 -52.471,2.853 -57.768,-2.314c-2.177,-2.124 -3.577,-2.299 -3.243,-249.167c0.016,-12.11 -3.114,-32.453 10.873,-32.717c40.494,-0.767 47.522,-8.747 69.596,25.612c86.713,134.976 90.369,146.563 97.969,135.551c12.3,-17.824 81.612,-129.63 88.631,-140.951c8.786,-14.173 12.076,-25.002 63.701,-20.294c14.54,1.326 11.108,9.366 11.893,251.792c0.017,5.175 4.71,32.84 -11.847,33.143c-20.766,0.38 -57.013,6.955 -57.219,-16.265c-1.145,-128.904 5.431,-156.395 -7.318,-137.644c-1.65,2.427 -1.029,2.35 -17.511,32.237Z" style="fill:#1195d3;"/><path d="M1492.425,1973.357c-0.027,-129.218 -3.602,-138.34 13.763,-138.647c79.36,-1.405 80.088,-2.271 85.412,2.015c10.842,8.729 1.762,298.854 5.159,316.154c3.572,18.191 175.485,4.372 196.363,9.088c14.902,3.366 8.423,78.354 5.273,81.217c-6.434,5.847 -297.297,2.468 -298.721,2.032c-9.337,-2.859 -7.227,-7.434 -7.25,-271.859Z" style="fill:#1195d3;"/><path d="M1012.391,2352.763c7.392,1.838 64.059,15.93 81.953,48.476c27.644,50.28 13.316,148.642 -93.747,153.732c-71.789,3.413 -82.473,-5.59 -82.733,13.687c-0.271,20.05 6.099,66.352 -12.609,66.605c-20.836,0.281 -60.227,4.41 -60.648,-10.652c-0.606,-21.67 -7.298,-260.847 3.066,-270.963c3.844,-3.752 101.732,-5.386 164.719,-0.885Zm-34.164,145.836c4.762,-0.63 45.112,-5.973 51.56,-30.762c17.346,-66.682 -62.071,-62.657 -101.786,-59.873c-14.669,1.028 -10.529,48.935 -10.343,76.353c0.133,19.552 28.196,14.058 60.569,14.282Z" style="fill:#1195d3;"/><path d="M1737,2563.301c4.135,-9.429 84.214,-185.276 91.549,-201.382c2.37,-5.204 7.213,-15.839 70.573,-11.313c8.353,0.597 13.079,0.934 53.454,90.006c83.447,184.095 95.19,191.21 81.213,194.846c-1.463,0.381 -58.029,0.167 -61.436,-0.441c-19.527,-3.48 -12.305,-11.332 -24.051,-37.694c-10.681,-23.973 -17.514,-20.473 -127.763,-19.793c-24.687,0.152 -30.157,34.355 -35.571,46.2c-0.814,1.781 2.498,14.33 -70.999,11.9c-2.166,-0.072 -11.268,-0.373 1.423,-27.054c20.073,-42.204 19.94,-41.627 21.609,-45.277Zm159.648,-83.423c-17.201,-37.486 -23.251,-64.323 -30.73,-45.768c-26.401,65.5 -31.372,73.666 -32.828,78.602c-1.63,5.529 0.943,11.607 71.415,9.598c14.941,-0.426 4.39,-8.471 -7.858,-42.431Z" style="fill:#1195d3;"/><path d="M1186.056,2350.764c185.575,-0.047 185.566,-0.91 190.219,0.673c7.006,2.383 6.837,39.609 6.821,43.099c-0.066,14.424 -12.694,12.719 -17.32,12.747c-37.63,0.234 -128.182,0.301 -128.978,0.32c-13.176,0.311 -12.598,41.948 -9.661,48.096c7.081,14.822 120.551,2.616 132.19,7.905c6.004,2.728 5.553,39.665 5.511,43.144c-0.199,16.277 -31.755,10.931 -122.628,11.338c-4.209,0.019 -23.493,0.105 -15.554,50.268c3.624,22.9 157.044,-3.65 162.61,16.738c13.723,50.265 -13.642,50.23 -17.908,50.225c-209.939,-0.264 -211.116,1.102 -215.26,-3.114c-6.247,-6.356 -2.315,-274.48 -1.644,-276.046c3.937,-9.189 6.863,-4.472 31.603,-5.394Z" style="fill:#1195d3;"/><path d="M2574.778,2489.959c-0.511,12.659 7.874,27.835 -18.604,28.145c-75.65,0.885 -117.254,-5.804 -117.647,11.191c-0.086,3.706 -1.005,43.446 4.463,46.119c16.774,8.201 153.534,-7.601 157.636,10.129c11.435,49.431 -12.214,49.538 -16.389,49.557c-196.233,0.892 -196.667,4.596 -212.981,-0.317c-9.001,-2.71 -6.708,-6.722 -6.396,-251.51c0.029,-22.76 -5.555,-32.489 17.253,-32.558c208.552,-0.629 209.769,1.466 211.377,5.385c1.469,3.579 9.608,51.173 -14.822,51.284c-111.439,0.505 -139.798,-3.787 -140.33,9.594c-0.142,3.573 -1.625,40.861 5.786,44.322c5.316,2.483 95.089,0.995 112.049,1.166c26.295,0.264 17.943,17.995 18.607,27.492Z" style="fill:#1195d3;"/><path d="M1326.445,1834.761c13.72,0.025 68.801,-1.805 73.657,3.228c4.288,4.445 2.841,56.093 2.841,56.756c0.019,342.364 -0.507,342.323 -0.831,343.45c-3.588,12.477 -101.685,12.995 -103.509,-0.969c-0.607,-4.646 -0.212,-390.269 -0.087,-392.991c0.846,-18.335 9.84,-8.889 27.929,-9.474Z" style="fill:#1195d3;"/><path d="M1601.808,2638.369c-1.225,0.019 -121.884,18.262 -169.732,-86.172c-66.445,-145.022 130.791,-276.085 258.434,-167.892c3.678,3.118 28.97,24.556 -27.798,53.476c-8.719,4.442 -46.467,-46.6 -111.462,-25.817c-98.882,31.619 -55.392,193.147 56.266,163.536c42.604,-11.298 41.567,-42.026 65.144,-21.477c25.22,21.982 39.065,31.717 5.784,57.253c-27.139,20.823 -70.185,26.276 -76.636,27.093Z" style="fill:#1195d3;"/><path d="M2253.522,2552.02c-36.268,81.688 -38.485,83.395 -51.112,83.458c-22.912,0.115 -57.661,4.779 -65.765,-11.587c-21.668,-43.756 -46.76,-105.415 -112.489,-246.893c-12.224,-26.311 -3.396,-26.594 -1.262,-26.662c77.306,-2.478 74.848,9.744 75.709,11.67c74.984,167.672 77.527,195.575 87.786,173.557c38.515,-82.657 74.141,-183.975 89.205,-184.546c21.965,-0.832 68.475,-4.89 62.965,10.118c-5.762,15.693 -8.248,14.361 -85.037,190.885Z" style="fill:#1195d3;"/><path d="M2780.788,2576.711c67.548,0.693 67.36,0.346 73.216,0.444c20.306,0.34 17.316,52.649 5.076,57.519c-15.334,6.102 -185.632,1.192 -201.767,0.726c-9.468,-0.273 -10.541,-9.541 -10.68,-10.745c-0.218,-1.882 -0.297,-249.932 0.203,-263.748c0.519,-14.354 42.946,-10.383 60.856,-10.083c18.096,0.303 9.406,11.569 12.024,212.103c0.264,20.228 37.068,13.927 61.072,13.783Z" style="fill:#1195d3;"/><path d="M326.928,2350.721c3.729,0.008 43.806,0.089 46.544,2.487c8.432,7.384 3.448,275.773 3.011,276.674c-4.707,9.705 -65.553,4.8 -65.919,4.683c-5.102,-1.64 -7.14,-3.459 -6.511,-240.062c0.08,-30.214 -7.154,-42.353 22.875,-43.781Z" style="fill:#1195d3;"/><path d="M1319.011,2776.705c7.391,124.684 -168.916,69.741 -117.141,-17.876c19.388,-32.811 93.919,-51.923 117.141,17.876Zm-96.04,10.782c7.103,80.308 103.855,15.049 56.532,-25.56c-4.743,-4.07 -19.644,-9.488 -31.278,-6.408c-20.798,5.507 -24.713,28.754 -25.254,31.968Z" style="fill:#1195d3;"/><path d="M1624.948,2758.894c24.603,51.315 -7.919,86.744 -51.56,88.344c-18.295,0.671 -56.011,7.077 -56.201,-14.742c-0.766,-87.75 -4.924,-101.173 17.015,-101.067c39.684,0.192 63.732,-5.727 90.747,27.465Zm-20.357,28.773c-0.534,-2.744 -4.469,-22.982 -19.512,-28.983c-45.073,-17.98 -43.462,8.665 -39.655,56.964c0.764,9.691 54.11,25.176 59.167,-27.98Z" style="fill:#1195d3;"/><path d="M815.593,2832.392c-11.396,-13.984 -11.005,-14.246 -12.307,-15.102c-18.158,-11.941 -19.8,-0.613 -23.501,20.572c-2.384,13.646 -25.259,12.393 -26.411,0.3c-0.759,-7.975 -0.594,-93.648 -0.396,-95.589c3.074,-30.161 144.768,-10.016 88.059,59.74c-17.604,21.655 22.331,38.317 7.458,45.556c-16.222,7.895 -31.213,-13.108 -32.903,-15.476Zm-16.996,-77.294c-7.063,1.906 -21.098,-6.078 -18.268,27.032c1.502,17.569 31.735,11.611 39.195,4.065c23.096,-23.363 -17.974,-30.578 -20.927,-31.097Z" style="fill:#1195d3;"/><path d="M2029.525,2793.529c0.218,4.056 2.553,47.583 -0.512,50.764c-6.661,6.913 -17.452,2.384 -18.849,1.798c-9.575,-4.018 -7.347,-108.147 -2.295,-112.198c22.201,-17.801 53.405,52.957 56.53,57.657c14.363,21.606 36.109,-55.142 53.969,-59.404c22.906,-5.466 18.326,22.787 18.173,100.379c-0.003,1.575 -0.031,15.953 -12.764,14.987c-18.857,-1.431 -12.635,-33.566 -12.48,-37.467c0.056,-1.401 1.72,-43.123 -11.947,-12.816c-39.169,86.854 -51.86,-1.835 -61.146,-8.163c-1.552,-1.057 -3.696,3.106 -5.248,2.049c-1.144,0.805 -2.287,1.609 -3.431,2.414Z" style="fill:#1195d3;"/><path d="M2271.757,2770.632c-7.673,70.364 -71.802,27.344 -73.653,56.368c-0.153,2.392 -2,31.355 -22.62,19.647c-8.857,-5.03 -8.428,-109.879 -0.453,-113.852c0.516,-0.257 61.433,-8.477 82.918,10.568c12.219,10.831 10.457,11.793 13.808,27.269Zm-35.692,16.894c13.955,-24.446 5.667,-32.14 -22.402,-32.8c-22.766,-0.535 -31.621,57.064 22.402,32.8Z" style="fill:#1195d3;"/><path d="M1817.087,804.64c-30.28,-65.931 -60.969,-29.362 -74.428,-44.936c-13.809,-15.979 6.202,-8.958 33.388,-14.532c54.667,-11.209 42.358,-75.265 49.852,-80.603c18.722,-13.334 -7.519,69.49 62.802,82.219c2.096,0.379 53.45,9.675 22.236,14.637c-60.429,9.606 -65.006,16.614 -75.669,76.971c-6.252,35.387 -17.087,-29.341 -18.181,-33.757Z" style="fill:#1195d3;"/><path d="M2578.599,2824.419c-17.075,1.229 -20.252,-1.636 -27.338,14.023c-6.897,15.243 -35.222,13.171 -27.169,-5.227c43.594,-99.584 45.321,-101.18 54.539,-101.817c26.775,-1.852 26.74,17.091 57.201,83.795c10.107,22.132 20.231,24.397 8.708,31.647c-18.588,11.694 -30.207,-21.465 -43.213,-22.328c-1.814,-0.12 -1.684,-0.007 -22.729,-0.093Zm0.334,-53.442c-0.906,2.326 -11.121,28.552 -4.959,30.809c0.355,0.13 20.357,2.557 22.135,-2.448c4.854,-13.654 -7.034,-29.748 -8.604,-31.872c-0.791,-1.07 -2.392,3.479 -3.183,2.409l-5.39,1.102Z" style="fill:#1195d3;"/><path d="M2296.733,2753.871c1.275,-15.583 -3.29,-22.054 12.37,-22.458c76.4,-1.967 75.566,5.549 75.983,6.405c10.995,22.625 -53.992,13.407 -58.388,22.035c-12.419,24.376 44.853,16.211 49.416,22.343c18.734,25.171 -48.381,10.255 -50.742,27.771c-3.631,26.95 58.849,6.804 62.513,22.478c4.844,20.721 -42.109,15.869 -78.66,15.191c-17.022,-0.316 -12.333,-33.569 -12.493,-93.766Z" style="fill:#1195d3;"/><path d="M634.456,2787.561c0.048,-4.296 0.563,-50.672 3.806,-53.573c3.78,-3.382 31.973,-2.989 70.502,-2.651c21.146,0.186 19.217,22.594 0.016,22.94c-34.719,0.626 -38.359,-5.774 -44.283,5.531c-12.75,24.336 44.885,16.241 49.36,22.47c18.16,25.279 -48.662,10.138 -51.138,27.622c-3.803,26.855 58.958,6.981 62.773,22.622c3.187,13.066 -8.051,17.819 -78.408,15.16c-18.974,-0.717 -12.589,-48.186 -12.629,-60.12Z" style="fill:#1195d3;"/><path d="M1074.063,2759.683c3.821,-5.34 30.982,-43.301 77.691,-26.475c32.694,11.778 17.452,35.054 -0.033,27.65c-58.165,-24.629 -58.923,31.019 -53.679,42.835c20.772,46.801 72.393,-7.136 75.437,23.404c1.926,19.327 -48.126,16.881 -35.466,30.948c26.353,29.279 -31.542,32.822 -31.97,19.447c-0.29,-9.043 16.206,-6.8 16.993,-7.265c26.883,-15.888 -86.298,-24.954 -48.972,-110.543Z" style="fill:#1195d3;"/><path d="M1659.601,2826.86c-0.133,-62.268 -2.266,-90.486 4.466,-94.173c2.122,-1.162 77.993,-5.48 82.563,4.738c18.716,41.849 -74.551,-7.948 -57.97,34.722c3.828,9.851 7.509,4.893 41.882,5.989c14.882,0.474 9.046,15.105 8.496,16.483c-3.484,8.735 -6.67,4.376 -41.878,5.254c-12.309,0.307 -10.742,16.458 -8.959,20.285c4.553,9.776 7.943,4.411 48.222,4.677c19.211,0.127 11.922,18.371 11.335,19.017c-3.581,3.947 -46.646,3.761 -50.715,3.743c-19.188,-0.083 -31.835,11.254 -37.442,-20.736Z" style="fill:#1195d3;"/><path d="M2460.666,2804.374c-1.13,1.303 -17.75,20.463 -5.214,20.915c40.679,1.467 54.884,-10.121 51.961,13.055c-1.567,12.422 -27.057,9.907 -85.934,9.263c-52.803,-0.577 63.142,-91.741 39.073,-93.273c-7.936,-0.505 -59.981,8.977 -49.996,-17.138c2.986,-7.81 96.042,-13.856 95.976,5.433c-0.037,10.885 -27.683,40.896 -45.865,61.745Z" style="fill:#1195d3;"/><path d="M1382.127,2800.722c-4.866,-1.5 -27.086,-4.259 -37.1,-19.798c-31.668,-49.139 78.984,-65.214 82.263,-38.236c3.22,26.494 -34.013,3.787 -49.96,11.859c-34.633,17.532 39.819,21.025 54.877,44.773c31.607,49.848 -88.453,64.678 -90.767,33.315c-1.904,-25.816 28.105,-3.108 52.18,-6.854c2.179,-0.339 27.013,-12.577 -11.493,-25.059Z" style="fill:#1195d3;"/><path d="M556.687,2800.77c-7.345,-2.229 -28.793,-5.053 -37.653,-19.485c-29.721,-48.412 77.608,-66.069 81.945,-38.399c4.034,25.741 -35.21,3.546 -48.913,12.003c-33.762,20.836 37.122,18.153 54.028,44.82c31.682,49.975 -89.13,64.359 -90.176,32.833c-0.897,-27.038 28.94,-2.75 52.249,-6.703c2.175,-0.369 26.688,-12.507 -11.479,-25.07Z" style="fill:#1195d3;"/><path d="M897.106,2805.599c-9.766,-22.904 -32.481,-66.854 -24.565,-72.816c25.051,-18.867 46.321,54.237 51.02,65.294c11.162,26.269 25.474,-28.442 34.194,-48.965c1.066,-2.51 13.407,-31.553 30.145,-15.916c6.422,6 -38.118,109.834 -49.46,113.976c-26.989,9.856 -36.988,-30.858 -41.335,-41.572Z" style="fill:#1195d3;"/><path d="M1906.704,391.634c22.155,-6.65 53.285,-1.442 60.894,-40.799c0.404,-2.09 10.352,-53.54 14.573,-22.269c6.428,47.623 10.499,52.721 57.819,60.578c29.07,4.827 -32.225,17.81 -33.625,18.539c-34.388,17.931 -17.446,70.043 -33.151,59.504c-2.876,-1.93 -1.025,-55.918 -34.184,-62.29c-24.298,-4.669 -32.054,2.268 -32.325,-13.263Z" style="fill:#1195d3;"/><path d="M2353.431,671.693l3.421,4.983c-0.809,1.432 2.866,3.927 -2.88,5.097c-44.801,9.123 -47.365,14.203 -56.059,61.878c-0.802,4.397 -0.878,4.416 -1.241,4.506c-3.383,0.838 -1.51,-3.824 -4.943,-2.974l-3.816,-2.11c-7.25,-59.727 -24.381,-50.314 -57.084,-61.671c-25.815,-8.965 39.128,-5.804 49.856,-33.387c11.97,-30.775 10.603,-71.955 17.269,-39.218c9.328,45.808 9.758,52.481 55.476,62.898Z" style="fill:#1195d3;"/><path d="M1836.499,2753.88c1.153,-18.023 -0.28,-25.339 17.769,-22.454c17.515,2.799 7.681,71.973 10.133,84.434c2.961,15.046 9.396,7.506 46.321,9.057c1.022,0.043 8.558,0.359 10.16,7.76c4.482,20.697 -40.094,15.624 -72.125,15.11c-16.129,-0.259 -12.202,-24.393 -12.259,-93.906Z" style="fill:#1195d3;"/><path d="M1904.824,2267.181c20.011,-0.479 19.497,-0.351 39.177,-0.939c19.311,-0.577 -2.379,16.998 -3.514,17.918c-41.628,33.731 -38.556,44.904 -92.276,44.983c-16.805,0.025 6.391,-26.772 7.943,-28.565c20.288,-23.437 17.584,-30.004 48.67,-33.397Z" style="fill:#1195d3;"/><path d="M1942.932,2776.358c1.151,-38.076 -0.601,-39.065 3.335,-42.418c2.639,-2.248 8.314,-2.609 9.069,-2.657c20.958,-1.332 16.389,19.458 16.203,101.196c-0.031,13.782 -2.005,16.029 -16.109,15.292c-17.265,-0.902 -12.127,-43.798 -12.497,-71.414Z" style="fill:#1195d3;"/><path d="M1039.988,2821.261c-1.437,19.261 3.073,27.822 -16.646,26.4c-11.893,-0.857 -11.071,-10.741 -11.101,-15.175c-0.548,-80.218 -5.062,-104.023 16.635,-101.501c15.299,1.779 10.959,33.622 11.113,90.275Z" style="fill:#1195d3;"/><path d="M2724.514,2796.025c-33.95,-3.371 -7.195,-16.651 -5.782,-16.815c30.906,-3.588 114.102,1.359 124.006,1.948c1.066,0.063 53.362,10.861 5.468,12.172c-62.006,1.698 -61.686,0.508 -123.691,2.695Z" style="fill:#1195d3;"/><path d="M433.496,2795.608c-115.538,-3.359 -141.039,-0.257 -132.522,-11.803c4.975,-6.744 127.521,-4.555 138.614,-4.357c1.381,0.025 26.17,12.938 -6.092,16.16Z" style="fill:#1195d3;"/><path d="M2229.936,514.829c0.674,0.335 8.423,4.186 8.423,4.186c0.088,1.903 -3.018,3.003 -2.93,4.906c-1.831,-3.031 -3.662,-6.061 -5.493,-9.092Z" style="fill:#1195d3;"/></g></svg>
